# xmcd
#
# Track frame offsets:
#	150
#	20627
#	42204
#	62269
#	77178
#	101428
#	122036
#	133736
#	152698
#	175592
#	198583
#
# Disc length: 2991 seconds
# Revision: 0
# Processed by: cddbd v1.5.2PL0 Copyright (c) Steve Scherf et al.
# Submitted via: dBpowerAMP V12.0
#
DISCID=890bad0b
DTITLE=Little Boogie Boy - Blues in my bedroom
DYEAR=2011
DGENRE=Acoustic Blues
TTITLE0=Birdnest on the ground
TTITLE1=Blues in my bedroom
TTITLE2=Good lover
TTITLE3=61 Highway blues
TTITLE4=Pony blues
TTITLE5=You've got to hurt before you heal
TTITLE6=Coming home
TTITLE7=Hold up your head
TTITLE8=Today I started loving you again
TTITLE9=Road of love
TTITLE10=The town I live in
EXTD=
EXTT0=
EXTT1=
EXTT2=
EXTT3=
EXTT4=
EXTT5=
EXTT6=
EXTT7=
EXTT8=
EXTT9=
EXTT10=
PLAYORDER=
